<svg width="16" height="16" viewBox="0 0 16 16" fill="none" xmlns="http://www.w3.org/2000/svg">
<g clip-path="url(#clip0_1126_5095)">
<path d="M0 14.1952V9.52854C0.00176457 7.93778 0.634472 6.41268 1.75931 5.28784C2.88414 4.16301 4.40924 3.5303 6 3.52854H9.22V2.4712C9.22006 2.20754 9.29829 1.9498 9.4448 1.73059C9.59131 1.51138 9.79953 1.34053 10.0431 1.23963C10.2867 1.13874 10.5548 1.11233 10.8134 1.16376C11.072 1.21518 11.3095 1.34212 11.496 1.52854L15.416 5.44787C15.7909 5.82292 16.0016 6.33154 16.0016 6.86187C16.0016 7.3922 15.7909 7.90081 15.416 8.27587L11.496 12.1952C11.3095 12.3816 11.072 12.5086 10.8134 12.56C10.5548 12.6114 10.2867 12.585 10.0431 12.4841C9.79953 12.3832 9.59131 12.2124 9.4448 11.9931C9.29829 11.7739 9.22006 11.5162 9.22 11.2525V10.1952H5.33333C4.27279 10.1963 3.25599 10.618 2.50608 11.3679C1.75616 12.1179 1.33439 13.1347 1.33333 14.1952C1.33333 14.372 1.2631 14.5416 1.13807 14.6666C1.01305 14.7916 0.843478 14.8619 0.666667 14.8619C0.489856 14.8619 0.320286 14.7916 0.195262 14.6666C0.0702379 14.5416 0 14.372 0 14.1952ZM10.5533 4.1952C10.5533 4.37201 10.4831 4.54158 10.3581 4.66661C10.233 4.79163 10.0635 4.86187 9.88667 4.86187H6C4.76276 4.86328 3.57659 5.3554 2.70173 6.23026C1.82686 7.10513 1.33474 8.29129 1.33333 9.52854V10.6712C1.83305 10.1025 2.44833 9.64693 3.1381 9.33493C3.82788 9.02292 4.57627 8.86164 5.33333 8.86187H9.88667C10.0635 8.86187 10.233 8.93211 10.3581 9.05713C10.4831 9.18216 10.5533 9.35172 10.5533 9.52854V11.2525L14.4727 7.3332C14.5976 7.20818 14.6679 7.03865 14.6679 6.86187C14.6679 6.68509 14.5976 6.51555 14.4727 6.39054L10.5533 2.4712V4.1952Z" fill="#9389F0"/>
</g>
<defs>
<clipPath id="clip0_1126_5095">
<rect width="16" height="16" fill="white" transform="matrix(-1 0 0 1 16 0)"/>
</clipPath>
</defs>
</svg>
