<svg width="16" height="16" viewBox="0 0 16 16" fill="none" xmlns="http://www.w3.org/2000/svg">
<path d="M2.46077 11.4842C2.39712 11.5444 2.32225 11.5914 2.24043 11.6226C2.15861 11.6538 2.07145 11.6686 1.98391 11.6661C1.89638 11.6637 1.81019 11.644 1.73027 11.6082C1.65034 11.5724 1.57825 11.5212 1.5181 11.4576C1.45796 11.3939 1.41094 11.3191 1.37973 11.2372C1.34852 11.1554 1.33373 11.0683 1.3362 10.9807C1.33868 10.8932 1.35837 10.807 1.39416 10.7271C1.42995 10.6471 1.48112 10.5751 1.54477 10.5149L7.54477 4.84824C7.66855 4.73122 7.83243 4.66602 8.00277 4.66602C8.17311 4.66602 8.33699 4.73122 8.46077 4.84824L14.4614 10.5149C14.5265 10.5747 14.579 10.6467 14.6159 10.727C14.6529 10.8072 14.6735 10.8939 14.6767 10.9822C14.6798 11.0705 14.6654 11.1585 14.6342 11.2411C14.6031 11.3237 14.5558 11.3994 14.4951 11.4636C14.4345 11.5278 14.3617 11.5793 14.281 11.6152C14.2003 11.651 14.1132 11.6705 14.0249 11.6724C13.9366 11.6743 13.8488 11.6587 13.7666 11.6264C13.6844 11.5941 13.6095 11.5458 13.5461 11.4842L8.00277 6.24958L2.46077 11.4842Z" fill="#313131"/>
</svg>
