<svg width="16" height="16" viewBox="0 0 16 16" fill="none" xmlns="http://www.w3.org/2000/svg">
<path d="M15.3321 9.33366C15.3321 9.15685 15.2618 8.98728 15.1368 8.86226C15.0118 8.73723 14.8422 8.66699 14.6654 8.66699H13.3627C13.1733 8.03009 12.9 7.42121 12.5501 6.85633C12.9794 6.67342 13.3455 6.36841 13.6029 5.97918C13.8604 5.58995 13.9978 5.13365 13.9981 4.66699C13.9981 4.49018 13.9278 4.32061 13.8028 4.19559C13.6778 4.07056 13.5082 4.00033 13.3314 4.00033C13.1546 4.00033 12.985 4.07056 12.86 4.19559C12.735 4.32061 12.6647 4.49018 12.6647 4.66699C12.6647 5.22499 12.2254 5.67766 11.6754 5.70699C11.4084 5.42309 11.1146 5.16567 10.7981 4.93833C10.9874 4.51299 11.0207 4.06633 11.0207 3.72233C11.0207 2.44633 9.87073 0.666992 7.99806 0.666992C6.1254 0.666992 4.9754 2.44633 4.9754 3.72233C4.9754 4.06699 5.00873 4.51433 5.1974 4.93899C4.88106 5.16609 4.58747 5.42329 4.32073 5.70699C4.05406 5.69317 3.80284 5.57763 3.6188 5.38416C3.43475 5.19069 3.33189 4.93402 3.3314 4.66699C3.3314 4.49018 3.26116 4.32061 3.13613 4.19559C3.01111 4.07056 2.84154 4.00033 2.66473 4.00033C2.48792 4.00033 2.31835 4.07056 2.19332 4.19559C2.0683 4.32061 1.99806 4.49018 1.99806 4.66699C1.99806 5.64899 2.59606 6.49366 3.44606 6.85633C3.08806 7.43699 2.81273 8.05566 2.6334 8.66699H1.33073C1.15392 8.66699 0.984349 8.73723 0.859325 8.86226C0.7343 8.98728 0.664063 9.15685 0.664062 9.33366C0.664063 9.51047 0.7343 9.68004 0.859325 9.80506C0.984349 9.93009 1.15392 10.0003 1.33073 10.0003H2.39606C2.39073 10.093 2.38206 10.187 2.38206 10.277C2.38206 10.9823 2.44273 11.7177 2.65673 12.403C1.67873 12.6963 0.959396 13.5943 0.959396 14.667C0.959396 14.8438 1.02963 15.0134 1.15466 15.1384C1.27968 15.2634 1.44925 15.3337 1.62606 15.3337C1.80287 15.3337 1.97244 15.2634 2.09747 15.1384C2.22249 15.0134 2.29273 14.8438 2.29273 14.667C2.29273 14.1097 2.7334 13.657 3.28406 13.6317C4.05673 14.631 5.46273 15.3337 7.99873 15.3337C10.5347 15.3337 11.9401 14.631 12.7134 13.6317C12.9801 13.6437 13.2319 13.7579 13.4165 13.9507C13.6011 14.1435 13.7043 14.4001 13.7047 14.667C13.7047 14.8438 13.775 15.0134 13.9 15.1384C14.025 15.2634 14.1946 15.3337 14.3714 15.3337C14.5482 15.3337 14.7178 15.2634 14.8428 15.1384C14.9678 15.0134 15.0381 14.8438 15.0381 14.667C15.0381 13.5943 14.3187 12.6957 13.3407 12.403C13.5547 11.7177 13.6154 10.9823 13.6154 10.277C13.6154 10.187 13.6067 10.093 13.6014 10.0003H14.6667C14.8435 10.0003 15.0131 9.93009 15.1381 9.80506C15.2632 9.68004 15.3334 9.51047 15.3334 9.33366H15.3321ZM6.3094 3.72233C6.3094 3.11499 6.95073 2.00033 7.99873 2.00033C9.04673 2.00033 9.68806 3.11566 9.68806 3.72233C9.68806 3.97566 9.66206 4.16366 9.61273 4.31233C9.1114 4.12633 8.57473 4.01433 7.99873 4.01433C7.42273 4.01433 6.8854 4.12633 6.38406 4.31233C6.33473 4.16366 6.3094 3.97499 6.3094 3.72233ZM7.99873 14.0003C4.0434 14.0003 3.71606 12.239 3.71606 10.277C3.71606 8.31499 5.42406 5.34766 7.99873 5.34766C10.5734 5.34766 12.2814 8.31433 12.2814 10.277C12.2814 12.2397 11.9541 14.0003 7.99873 14.0003Z" fill="#888888"/>
</svg>
