<svg width="20" height="20" viewBox="0 0 20 20" fill="none" xmlns="http://www.w3.org/2000/svg">
<path class="stroke-color" d="M2 9.79488C2 6.70072 2 5.15324 2.9376 4.19241C3.8752 3.23159 5.3832 3.23077 8.4 3.23077H11.6C14.6168 3.23077 16.1256 3.23077 17.0624 4.19241C17.9992 5.15406 18 6.70072 18 9.79488V11.4359C18 14.5301 18 16.0775 17.0624 17.0384C16.1248 17.9992 14.6168 18 11.6 18H8.4C5.3832 18 3.8744 18 2.9376 17.0384C2.0008 16.0767 2 14.5301 2 11.4359V9.79488Z" stroke-width="1.5"/>
<path class="stroke-color" d="M6.00039 3.23077V2M14.0004 3.23077V2M2.40039 7.33333H17.6004" stroke-width="1.5" stroke-linecap="round"/>
<path class="fill-color" d="M14.7992 13.8974C14.7992 14.115 14.7149 14.3237 14.5649 14.4776C14.4149 14.6315 14.2114 14.7179 13.9992 14.7179C13.787 14.7179 13.5836 14.6315 13.4335 14.4776C13.2835 14.3237 13.1992 14.115 13.1992 13.8974C13.1992 13.6798 13.2835 13.4711 13.4335 13.3172C13.5836 13.1634 13.787 13.0769 13.9992 13.0769C14.2114 13.0769 14.4149 13.1634 14.5649 13.3172C14.7149 13.4711 14.7992 13.6798 14.7992 13.8974ZM14.7992 10.6154C14.7992 10.833 14.7149 11.0417 14.5649 11.1956C14.4149 11.3494 14.2114 11.4359 13.9992 11.4359C13.787 11.4359 13.5836 11.3494 13.4335 11.1956C13.2835 11.0417 13.1992 10.833 13.1992 10.6154C13.1992 10.3978 13.2835 10.1891 13.4335 10.0352C13.5836 9.88131 13.787 9.79486 13.9992 9.79486C14.2114 9.79486 14.4149 9.88131 14.5649 10.0352C14.7149 10.1891 14.7992 10.3978 14.7992 10.6154ZM10.7992 13.8974C10.7992 14.115 10.7149 14.3237 10.5649 14.4776C10.4149 14.6315 10.2114 14.7179 9.99922 14.7179C9.78705 14.7179 9.58356 14.6315 9.43353 14.4776C9.2835 14.3237 9.19922 14.115 9.19922 13.8974C9.19922 13.6798 9.2835 13.4711 9.43353 13.3172C9.58356 13.1634 9.78705 13.0769 9.99922 13.0769C10.2114 13.0769 10.4149 13.1634 10.5649 13.3172C10.7149 13.4711 10.7992 13.6798 10.7992 13.8974ZM10.7992 10.6154C10.7992 10.833 10.7149 11.0417 10.5649 11.1956C10.4149 11.3494 10.2114 11.4359 9.99922 11.4359C9.78705 11.4359 9.58356 11.3494 9.43353 11.1956C9.2835 11.0417 9.19922 10.833 9.19922 10.6154C9.19922 10.3978 9.2835 10.1891 9.43353 10.0352C9.58356 9.88131 9.78705 9.79486 9.99922 9.79486C10.2114 9.79486 10.4149 9.88131 10.5649 10.0352C10.7149 10.1891 10.7992 10.3978 10.7992 10.6154ZM6.79922 13.8974C6.79922 14.115 6.71493 14.3237 6.5649 14.4776C6.41487 14.6315 6.21139 14.7179 5.99922 14.7179C5.78705 14.7179 5.58356 14.6315 5.43353 14.4776C5.2835 14.3237 5.19922 14.115 5.19922 13.8974C5.19922 13.6798 5.2835 13.4711 5.43353 13.3172C5.58356 13.1634 5.78705 13.0769 5.99922 13.0769C6.21139 13.0769 6.41487 13.1634 6.5649 13.3172C6.71493 13.4711 6.79922 13.6798 6.79922 13.8974ZM6.79922 10.6154C6.79922 10.833 6.71493 11.0417 6.5649 11.1956C6.41487 11.3494 6.21139 11.4359 5.99922 11.4359C5.78705 11.4359 5.58356 11.3494 5.43353 11.1956C5.2835 11.0417 5.19922 10.833 5.19922 10.6154C5.19922 10.3978 5.2835 10.1891 5.43353 10.0352C5.58356 9.88131 5.78705 9.79486 5.99922 9.79486C6.21139 9.79486 6.41487 9.88131 6.5649 10.0352C6.71493 10.1891 6.79922 10.3978 6.79922 10.6154Z" />
</svg>
