<svg width="20" height="20" viewBox="0 0 20 20" fill='none' xmlns="http://www.w3.org/2000/svg">
<path d="M19.1668 9.1667H10.8334V0.833322C10.8334 0.373087 10.4603 0 10 0C9.5398 0 9.16672 0.373087 9.16672 0.833322V9.16666H0.833324C0.373087 9.1667 0 9.53978 0 10C0 10.4603 0.373087 10.8333 0.833324 10.8333H9.16668V19.1667C9.16668 19.6269 9.53976 20 10 20C10.4602 20 10.8333 19.6269 10.8333 19.1667V10.8333H19.1667C19.6269 10.8333 20 10.4603 20 10C20.0001 9.53978 19.627 9.1667 19.1668 9.1667Z" />
</svg>
