<svg width="16" height="16" viewBox="0 0 16 16" fill="none" xmlns="http://www.w3.org/2000/svg">
<g clip-path="url(#clip0_1126_5091)">
<path d="M12.438 0.620007L4.31 8.74801C3.99956 9.05677 3.75345 9.42405 3.58592 9.82857C3.41839 10.2331 3.33276 10.6668 3.334 11.1047V12C3.334 12.1768 3.40424 12.3464 3.52926 12.4714C3.65428 12.5964 3.82385 12.6667 4.00066 12.6667H4.896C5.33384 12.6679 5.76758 12.5823 6.1721 12.4148C6.57663 12.2472 6.9439 12.0011 7.25266 11.6907L15.3807 3.56267C15.7703 3.17212 15.9891 2.64299 15.9891 2.09134C15.9891 1.53969 15.7703 1.01056 15.3807 0.620007C14.9844 0.24127 14.4574 0.0299072 13.9093 0.0299072C13.3612 0.0299072 12.8342 0.24127 12.438 0.620007ZM14.438 2.62001L6.31 10.748C5.93408 11.1216 5.426 11.332 4.896 11.3333H4.66733V11.1047C4.66872 10.5747 4.87904 10.0666 5.25266 9.69067L13.3807 1.56267C13.5231 1.42664 13.7124 1.35074 13.9093 1.35074C14.1063 1.35074 14.2956 1.42664 14.438 1.56267C14.578 1.70302 14.6566 1.89314 14.6566 2.09134C14.6566 2.28955 14.578 2.47966 14.438 2.62001Z" fill="#9389F0"/>
<path d="M14.8619 6.18126C14.987 6.05624 15.1565 5.986 15.3333 5.986C15.5101 5.986 15.6797 6.05624 15.8047 6.18126C15.9298 6.30629 16 6.47586 16 6.65267V10.8953C16.0011 11.3332 15.9153 11.767 15.7477 12.1715C15.58 12.576 15.3338 12.9432 15.0233 13.252L13.2527 15.024C12.9438 15.3345 12.5764 15.5806 12.1718 15.7481C11.7671 15.9156 11.3333 16.0013 10.8953 16H3.33333C2.4496 15.9989 1.60237 15.6474 0.97748 15.0225C0.352588 14.3976 0.00105857 13.5504 0 12.6667V3.33333C0.00105857 2.4496 0.352588 1.60237 0.97748 0.97748C1.60237 0.352588 2.4496 0.00105857 3.33333 0H9.36133C9.53815 0 9.70772 0.0702379 9.83274 0.195262C9.95776 0.320286 10.028 0.489856 10.028 0.666667C10.028 0.843478 9.95776 1.01305 9.83274 1.13807C9.70772 1.2631 9.53815 1.33333 9.36133 1.33333H3.33333C2.8029 1.33333 2.29419 1.54405 1.91912 1.91912C1.54405 2.29419 1.33333 2.8029 1.33333 3.33333V12.6667C1.33333 13.1971 1.54405 13.7058 1.91912 14.0809C2.29419 14.456 2.8029 14.6667 3.33333 14.6667L11.3333 14.6147C11.7031 14.5337 12.042 14.3487 12.31 14.0813L14.0833 12.3093C14.3493 12.0406 14.5342 11.7023 14.6167 11.3333L14.6667 6.65267C14.6667 6.47586 14.7369 6.30629 14.8619 6.18126Z" fill="#9389F0"/>
</g>
<defs>
<clipPath id="clip0_1126_5091">
<rect width="16" height="16" fill="white"/>
</clipPath>
</defs>
</svg>
