<svg width="16" height="16" viewBox="0 0 16 16" fill="none" xmlns="http://www.w3.org/2000/svg">
<g clip-path="url(#clip0_1134_7267)">
<path d="M12.436 0.620374L4.30804 8.74837C3.99761 9.05714 3.7515 9.42441 3.58397 9.82894C3.41643 10.2335 3.33081 10.6672 3.33204 11.105V12.0004C3.33204 12.1772 3.40228 12.3468 3.52731 12.4718C3.65233 12.5968 3.8219 12.667 3.99871 12.667H4.89404C5.33189 12.6683 5.76562 12.5827 6.17015 12.4151C6.57467 12.2476 6.94195 12.0015 7.25071 11.691L15.3787 3.56304C15.7683 3.17249 15.9871 2.64336 15.9871 2.09171C15.9871 1.54006 15.7683 1.01093 15.3787 0.620374C14.9825 0.241636 14.4555 0.0302734 13.9074 0.0302734C13.3593 0.0302734 12.8323 0.241636 12.436 0.620374ZM14.436 2.62037L6.30804 10.7484C5.93213 11.122 5.42405 11.3323 4.89404 11.3337H4.66538V11.105C4.66677 10.575 4.87709 10.067 5.25071 9.69104L13.3787 1.56304C13.5211 1.42701 13.7105 1.3511 13.9074 1.3511C14.1043 1.3511 14.2937 1.42701 14.436 1.56304C14.576 1.70338 14.6546 1.8935 14.6546 2.09171C14.6546 2.28991 14.576 2.48003 14.436 2.62037Z" fill="#8C7FEE"/>
<path d="M14.8619 6.18126C14.987 6.05624 15.1565 5.986 15.3333 5.986C15.5101 5.986 15.6797 6.05624 15.8047 6.18126C15.9298 6.30629 16 6.47586 16 6.65267V10.8953C16.0011 11.3332 15.9153 11.767 15.7477 12.1715C15.58 12.576 15.3338 12.9432 15.0233 13.252L13.2527 15.024C12.9438 15.3345 12.5764 15.5806 12.1718 15.7481C11.7671 15.9156 11.3333 16.0013 10.8953 16H3.33333C2.4496 15.9989 1.60237 15.6474 0.97748 15.0225C0.352588 14.3976 0.00105857 13.5504 0 12.6667V3.33333C0.00105857 2.4496 0.352588 1.60237 0.97748 0.97748C1.60237 0.352588 2.4496 0.00105857 3.33333 0H9.36133C9.53815 0 9.70772 0.0702379 9.83274 0.195262C9.95776 0.320286 10.028 0.489856 10.028 0.666667C10.028 0.843478 9.95776 1.01305 9.83274 1.13807C9.70772 1.2631 9.53815 1.33333 9.36133 1.33333H3.33333C2.8029 1.33333 2.29419 1.54405 1.91912 1.91912C1.54405 2.29419 1.33333 2.8029 1.33333 3.33333V12.6667C1.33333 13.1971 1.54405 13.7058 1.91912 14.0809C2.29419 14.456 2.8029 14.6667 3.33333 14.6667L11.3333 14.6147C11.7031 14.5337 12.042 14.3487 12.31 14.0813L14.0833 12.3093C14.3493 12.0406 14.5342 11.7023 14.6167 11.3333L14.6667 6.65267C14.6667 6.47586 14.7369 6.30629 14.8619 6.18126Z" fill="#8C7FEE"/>
</g>
<defs>
<clipPath id="clip0_1134_7267">
<rect width="16" height="16" fill="white"/>
</clipPath>
</defs>
</svg>
