<svg width="16" height="16" viewBox="0 0 16 16" fill="none" xmlns="http://www.w3.org/2000/svg">
<g clip-path="url(#clip0_1134_7110)">
<path d="M15.5131 6.27886C14.4791 4.59486 12.1271 1.76953 7.99906 1.76953C3.87106 1.76953 1.51906 4.59486 0.485058 6.27886C0.16541 6.79587 -0.00390625 7.39169 -0.00390625 7.99953C-0.00390625 8.60737 0.16541 9.20319 0.485058 9.7202C1.51906 11.4042 3.87106 14.2295 7.99906 14.2295C12.1271 14.2295 14.4791 11.4042 15.5131 9.7202C15.8327 9.20319 16.002 8.60737 16.002 7.99953C16.002 7.39169 15.8327 6.79587 15.5131 6.27886ZM14.3764 9.0222C13.4884 10.4662 11.4784 12.8962 7.99906 12.8962C4.51972 12.8962 2.50972 10.4662 1.62172 9.0222C1.43181 8.7149 1.33122 8.36078 1.33122 7.99953C1.33122 7.63828 1.43181 7.28417 1.62172 6.97686C2.50972 5.53286 4.51972 3.10286 7.99906 3.10286C11.4784 3.10286 13.4884 5.5302 14.3764 6.97686C14.5663 7.28417 14.6669 7.63828 14.6669 7.99953C14.6669 8.36078 14.5663 8.7149 14.3764 9.0222Z" fill="#8575EB"/>
<path d="M7.9974 4.66602C7.33813 4.66602 6.69366 4.86151 6.1455 5.22778C5.59733 5.59405 5.17009 6.11465 4.9178 6.72374C4.66551 7.33282 4.5995 8.00305 4.72811 8.64965C4.85673 9.29625 5.1742 9.8902 5.64037 10.3564C6.10655 10.8225 6.70049 11.14 7.3471 11.2686C7.9937 11.3973 8.66392 11.3312 9.27301 11.0789C9.8821 10.8267 10.4027 10.3994 10.769 9.85125C11.1352 9.30309 11.3307 8.65862 11.3307 7.99935C11.3297 7.11562 10.9781 6.26839 10.3533 5.6435C9.72836 5.0186 8.88113 4.66707 7.9974 4.66602ZM7.9974 9.99935C7.60183 9.99935 7.21516 9.88205 6.88626 9.66229C6.55736 9.44252 6.30101 9.13017 6.14964 8.76472C5.99826 8.39926 5.95866 7.99713 6.03583 7.60917C6.113 7.22121 6.30348 6.86484 6.58318 6.58513C6.86289 6.30543 7.21925 6.11495 7.60722 6.03778C7.99518 5.96061 8.39731 6.00021 8.76276 6.15159C9.12822 6.30296 9.44057 6.55931 9.66034 6.88821C9.8801 7.21711 9.9974 7.60379 9.9974 7.99935C9.9974 8.52978 9.78668 9.03849 9.41161 9.41356C9.03654 9.78864 8.52783 9.99935 7.9974 9.99935Z" fill="#8575EB"/>
</g>
<defs>
<clipPath id="clip0_1134_7110">
<rect width="16" height="16" fill="white"/>
</clipPath>
</defs>
</svg>
