<svg width="16" height="16" viewBox="0 0 16 16" fill="none" xmlns="http://www.w3.org/2000/svg">
<g clip-path="url(#clip0_1134_8015)">
<path d="M14.6397 5.14756C12.3199 3.66672 10.0002 2.18589 7.68041 0.70505C7.1855 0.344241 6.60002 0.127027 5.98884 0.0773641C5.37765 0.0277014 4.76443 0.147495 4.21744 0.423575C3.67045 0.699655 3.2109 1.12123 2.88994 1.6415C2.56885 2.16177 2.39871 2.76042 2.39844 3.37097C2.39844 6.45656 2.39844 9.54215 2.39844 12.6277C2.39857 13.2386 2.56871 13.8376 2.88994 14.358C3.21117 14.8786 3.67085 15.3002 4.21825 15.5762C4.76552 15.8523 5.37901 15.972 5.99047 15.922C6.60193 15.872 7.18754 15.6543 7.68231 15.293C10.0022 13.6883 12.3219 12.0835 14.6417 10.4788C15.0622 10.1717 15.4041 9.77032 15.6398 9.30717C15.8756 8.84402 15.9984 8.33216 15.9984 7.81284C15.9984 7.29369 15.8756 6.78167 15.6398 6.31852C15.4041 5.85537 15.0622 5.45395 14.6417 5.14693L14.6397 5.14756ZM13.8533 9.41236C11.5336 11.0171 9.21381 12.6217 6.89405 14.2265C6.5973 14.4424 6.24629 14.5724 5.87977 14.602C5.51338 14.6315 5.14591 14.5597 4.81801 14.3942C4.49012 14.2287 4.21458 13.9761 4.02187 13.6643C3.82929 13.3525 3.72702 12.9938 3.72661 12.6277C3.72661 9.54215 3.72661 6.45656 3.72661 3.37097C3.72281 3.00429 3.82317 2.64396 4.01589 2.33138C4.20873 2.01897 4.48617 1.76685 4.81625 1.60437C5.09709 1.46205 5.40757 1.38779 5.72269 1.38748C6.14497 1.38906 6.55555 1.52552 6.89405 1.77684C9.21381 3.25768 11.5336 4.73852 13.8533 6.21935C14.1055 6.40373 14.3103 6.64442 14.4516 6.92225C14.5927 7.19991 14.6665 7.50694 14.6665 7.81824C14.6665 8.12954 14.5927 8.43641 14.4516 8.71423C14.3103 8.9919 14.1055 9.23275 13.8533 9.41697V9.41236Z" fill="#8C7FEE" stroke="#8575EB" stroke-width="0.2"/>
</g>
<defs>
<clipPath id="clip0_1134_8015">
<rect width="16" height="16" fill="white"/>
</clipPath>
</defs>
</svg>
