<svg width="16" height="16" viewBox="0 0 16 16" fill="none" xmlns="http://www.w3.org/2000/svg">
<g clip-path="url(#clip0_1134_10836)">
<path d="M12.6666 0C9.55552 0 6.44448 0 3.33328 0C2.44928 0 1.60144 0.3512 0.97632 0.97632C0.3512 1.60144 0 2.44928 0 3.33328C0 6.44448 0 9.55552 0 12.6666C0 13.1045 0.0862402 13.5378 0.25376 13.9422C0.42128 14.3467 0.66672 14.7142 0.97632 15.0237C1.60144 15.6488 2.44928 16 3.33328 16C6.44448 16 9.55552 16 12.6666 16C13.1045 16 13.5378 15.9138 13.9422 15.7462C14.3467 15.5787 14.7142 15.3333 15.0237 15.0237C15.3333 14.7142 15.5787 14.3467 15.7462 13.9422C15.9138 13.5378 16 13.1045 16 12.6666C16 9.55552 16 6.44448 16 3.33328C16 2.89552 15.9138 2.46208 15.7462 2.05776C15.5787 1.65328 15.3333 1.28576 15.0237 0.97632C14.7142 0.66672 14.3467 0.42128 13.9422 0.25376C13.5378 0.0862402 13.1045 0 12.6666 0ZM14.6666 12.6666C14.6666 13.1971 14.456 13.7058 14.081 14.081C13.7058 14.456 13.1971 14.6666 12.6666 14.6666C9.55552 14.6666 6.44448 14.6666 3.33328 14.6666C2.80288 14.6666 2.29424 14.456 1.9192 14.081C1.544 13.7058 1.33328 13.1971 1.33328 12.6666C1.33328 9.55552 1.33328 6.44448 1.33328 3.33328C1.33328 2.80288 1.544 2.29424 1.9192 1.9192C2.29424 1.544 2.80288 1.33328 3.33328 1.33328C6.44448 1.33328 9.55552 1.33328 12.6666 1.33328C13.1971 1.33328 13.7058 1.544 14.081 1.9192C14.456 2.29424 14.6666 2.80288 14.6666 3.33328C14.6666 6.44448 14.6666 9.55552 14.6666 12.6666Z" fill="#8C7FEE" stroke="#8C7FEE" stroke-width="0.2"/>
</g>
<defs>
<clipPath id="clip0_1134_10836">
<rect width="16" height="16" fill="white"/>
</clipPath>
</defs>
</svg>
