<svg width="16" height="16" viewBox="0 0 16 16" fill="none" xmlns="http://www.w3.org/2000/svg">
<path d="M15.4273 6.53018L10.6759 1.72885C8.56525 -0.356488 6.42192 -0.111821 5.32792 0.220845C5.10445 0.287555 4.90242 0.411766 4.74202 0.581055C4.58163 0.750344 4.46849 0.958778 4.41392 1.18551C4.35828 1.40924 4.36217 1.64363 4.42521 1.86538C4.48825 2.08713 4.60824 2.28851 4.77325 2.44951L7.76058 5.45351L0.575251 12.5955C0.203619 12.9733 -0.00321091 13.4829 3.76978e-05 14.0128C0.00328631 14.5427 0.216349 15.0497 0.592585 15.4228C0.969251 15.7962 1.46792 16.0008 1.99792 16.0008H2.00992C2.2718 16.0003 2.53097 15.9478 2.77243 15.8464C3.01388 15.745 3.23283 15.5968 3.41658 15.4102L10.5813 8.28951L12.1046 9.82151C12.2899 10.0096 12.5109 10.1587 12.7546 10.2603C12.9984 10.3618 13.2599 10.4137 13.5239 10.4128H13.5273C13.7915 10.4135 14.0533 10.3612 14.2971 10.259C14.5408 10.1569 14.7617 10.007 14.9466 9.81818L15.4219 9.33751C15.7888 8.9627 15.9946 8.45939 15.9956 7.93493C15.9966 7.41047 15.7927 6.90638 15.4273 6.53018ZM5.71658 1.49618C6.06949 1.38737 6.43662 1.33165 6.80592 1.33085C7.66592 1.33085 8.69192 1.64285 9.73325 2.67151L13.0426 6.01618L11.6239 7.44751L5.71592 1.50685L5.71658 1.49618ZM2.47258 14.4688C2.41132 14.5313 2.33831 14.581 2.25776 14.6151C2.17721 14.6491 2.09072 14.667 2.00325 14.6675C1.81858 14.6568 1.65725 14.6002 1.53058 14.4742C1.40543 14.3509 1.33409 14.1831 1.33209 14.0074C1.33009 13.8317 1.39761 13.6623 1.51992 13.5362L8.70125 6.39885L9.64125 7.34418L2.47258 14.4688ZM14.4739 8.40018L13.9979 8.88151C13.9364 8.94442 13.8628 8.99436 13.7816 9.02837C13.7004 9.06237 13.6133 9.07977 13.5253 9.07951H13.5239C13.4358 9.07998 13.3485 9.06275 13.2672 9.02886C13.1859 8.99496 13.1123 8.94508 13.0506 8.88218L12.5639 8.39285L13.9806 6.96418L14.4766 7.46551C14.598 7.59095 14.6656 7.75882 14.6651 7.93339C14.6647 8.10796 14.596 8.27544 14.4739 8.40018Z" fill="#888888"/>
</svg>
