<svg width="20" height="20" viewBox="0 0 20 20" fill="none" xmlns="http://www.w3.org/2000/svg">
<path d="M18.3604 8.84606L13.0137 3.44485C10.6385 1.09897 8.22663 1.37421 6.99554 1.74844C6.74408 1.82348 6.51673 1.96321 6.33623 2.15365C6.15574 2.34409 6.02842 2.57857 5.96701 2.83363C5.9044 3.08531 5.90878 3.34898 5.97972 3.59844C6.05066 3.84789 6.18569 4.07444 6.37137 4.25556L9.73304 7.63488L1.64733 15.6692C1.22913 16.0941 0.996387 16.6674 1.00004 17.2635C1.0037 17.8596 1.24346 18.43 1.66684 18.8498C2.09071 19.2698 2.65186 19.5 3.24827 19.5H3.26177C3.55647 19.4994 3.84812 19.4404 4.11983 19.3263C4.39154 19.2122 4.63792 19.0454 4.84471 18.8355L12.9072 10.8252L14.6214 12.5486C14.8299 12.7602 15.0786 12.928 15.3529 13.0422C15.6271 13.1564 15.9214 13.2148 16.2186 13.2138H16.2223C16.5197 13.2145 16.8143 13.1557 17.0886 13.0408C17.3629 12.9259 17.6114 12.7573 17.8195 12.5449L18.3544 12.0041C18.7672 11.5825 18.9989 11.0163 19 10.4263C19.0011 9.83634 18.7716 9.26927 18.3604 8.84606ZM7.43291 3.18311C7.83004 3.06071 8.24317 2.99802 8.65875 2.99712C9.62651 2.99712 10.7811 3.3481 11.9529 4.50529L15.6769 8.26784L14.0805 9.87801L7.43216 3.19511L7.43291 3.18311ZM3.78242 17.7766C3.71347 17.8468 3.63131 17.9027 3.54067 17.9411C3.45003 17.9794 3.3527 17.9995 3.25427 18.0001C3.04647 17.9881 2.86492 17.9243 2.72238 17.7826C2.58155 17.6439 2.50126 17.4551 2.49901 17.2575C2.49676 17.0598 2.57273 16.8693 2.71037 16.7274L10.7916 8.69832L11.8494 9.76176L3.78242 17.7766ZM17.2876 10.9497L16.752 11.4912C16.6827 11.5619 16.5999 11.6181 16.5086 11.6564C16.4172 11.6946 16.3191 11.7142 16.2201 11.7139H16.2186C16.1194 11.7144 16.0212 11.6951 15.9297 11.6569C15.8382 11.6188 15.7553 11.5627 15.6859 11.4919L15.1383 10.9415L16.7324 9.33429L17.2906 9.89826C17.4272 10.0394 17.5034 10.2282 17.5028 10.4246C17.5022 10.621 17.425 10.8094 17.2876 10.9497Z" fill="#5E5E5E"/>
</svg>
