<svg width="20" height="20" viewBox="0 0 20 20" fill="none" xmlns="http://www.w3.org/2000/svg">
<g clip-path="url(#clip0_571_8585)">
<path d="M19.167 11.6663C19.167 11.4453 19.0792 11.2334 18.923 11.0771C18.7667 10.9208 18.5547 10.833 18.3337 10.833H16.7054C16.4685 10.0369 16.1269 9.27577 15.6895 8.56967C16.2262 8.34105 16.6838 7.95978 17.0056 7.47324C17.3274 6.9867 17.4992 6.41634 17.4995 5.83301C17.4995 5.61199 17.4117 5.40003 17.2555 5.24375C17.0992 5.08747 16.8872 4.99967 16.6662 4.99967C16.4452 4.99967 16.2332 5.08747 16.0769 5.24375C15.9207 5.40003 15.8329 5.61199 15.8329 5.83301C15.8329 6.53051 15.2837 7.09634 14.5962 7.13301C14.2625 6.77813 13.8952 6.45636 13.4995 6.17217C13.7362 5.64051 13.7779 5.08217 13.7779 4.65217C13.7779 3.05717 12.3404 0.833008 9.99953 0.833008C7.6587 0.833008 6.2212 3.05717 6.2212 4.65217C6.2212 5.08301 6.26286 5.64217 6.4987 6.17301C6.10328 6.45688 5.73629 6.77838 5.40286 7.13301C5.06953 7.11573 4.7555 6.97131 4.52545 6.72947C4.29539 6.48763 4.16682 6.16679 4.1662 5.83301C4.1662 5.61199 4.0784 5.40003 3.92212 5.24375C3.76584 5.08747 3.55388 4.99967 3.33286 4.99967C3.11185 4.99967 2.89989 5.08747 2.74361 5.24375C2.58733 5.40003 2.49953 5.61199 2.49953 5.83301C2.49953 7.06051 3.24703 8.11634 4.30953 8.56967C3.86203 9.29551 3.51786 10.0688 3.2937 10.833H1.66536C1.44435 10.833 1.23239 10.9208 1.07611 11.0771C0.919829 11.2334 0.832031 11.4453 0.832031 11.6663C0.832031 11.8874 0.919829 12.0993 1.07611 12.2556C1.23239 12.4119 1.44435 12.4997 1.66536 12.4997H2.99703C2.99036 12.6155 2.97953 12.733 2.97953 12.8455C2.97953 13.7272 3.05536 14.6463 3.32286 15.503C2.10036 15.8697 1.2012 16.9922 1.2012 18.333C1.2012 18.554 1.289 18.766 1.44528 18.9223C1.60156 19.0785 1.81352 19.1663 2.03453 19.1663C2.25554 19.1663 2.46751 19.0785 2.62379 18.9223C2.78007 18.766 2.86786 18.554 2.86786 18.333C2.86786 17.6363 3.4187 17.0705 4.10703 17.0388C5.07286 18.288 6.83036 19.1663 10.0004 19.1663C13.1704 19.1663 14.927 18.288 15.8937 17.0388C16.227 17.0538 16.5418 17.1967 16.7725 17.4377C17.0033 17.6787 17.1323 17.9993 17.1329 18.333C17.1329 18.554 17.2207 18.766 17.3769 18.9223C17.5332 19.0785 17.7452 19.1663 17.9662 19.1663C18.1872 19.1663 18.3992 19.0785 18.5555 18.9223C18.7117 18.766 18.7995 18.554 18.7995 18.333C18.7995 16.9922 17.9004 15.8688 16.6779 15.503C16.9454 14.6463 17.0212 13.7272 17.0212 12.8455C17.0212 12.733 17.0104 12.6155 17.0037 12.4997H18.3354C18.5564 12.4997 18.7683 12.4119 18.9246 12.2556C19.0809 12.0993 19.1687 11.8874 19.1687 11.6663H19.167ZM7.8887 4.65217C7.8887 3.89301 8.69036 2.49967 10.0004 2.49967C11.3104 2.49967 12.112 3.89384 12.112 4.65217C12.112 4.96884 12.0795 5.20384 12.0179 5.38967C11.3912 5.15717 10.7204 5.01717 10.0004 5.01717C9.28036 5.01717 8.6087 5.15717 7.98203 5.38967C7.92036 5.20384 7.8887 4.96801 7.8887 4.65217ZM10.0004 17.4997C5.0562 17.4997 4.64703 15.298 4.64703 12.8455C4.64703 10.393 6.78203 6.68384 10.0004 6.68384C13.2187 6.68384 15.3537 10.3922 15.3537 12.8455C15.3537 15.2988 14.9445 17.4997 10.0004 17.4997Z" fill="#5E5E5E"/>
</g>
<defs>
<clipPath id="clip0_571_8585">
<rect width="20" height="20" fill="white"/>
</clipPath>
</defs>
</svg>
